<svg xmlns="http://www.w3.org/2000/svg" viewBox="0 0 512 512">
  <!-- Fondo -->
  <rect width="512" height="512" rx="100" fill="#238636"></rect>

  <!-- Logo GitHub centrado y escalado -->
  <g transform="translate(256,256) scale(0.85) translate(-256,-256)">
    <path fill="white" d="M256 48C141.6 48 48 141.6 48 256c0 90.7 58.7 167.5 140.3 194.6 10.2 1.8 14-4.4 14-9.7 0-4.9-.2-21-.2-38.2-51.5 9.5-64.9-12.6-69-24.1-2.3-5.9-12.3-24.1-21-28.9-7.2-3.9-17.4-13.4-.2-13.6 16.1-.2 27.7 14.9 31.5 21 18.4 31 47.9 22.3 59.7 17 1.8-13.3 7.2-22.3 13.1-27.4-45.7-5.1-93.4-22.8-93.4-101.3 0-22.3 7.9-40.7 21-55.1-2.1-5.1-9.2-26.1 2-54.3 0 0 17.2-5.5 56.4 21 16.4-4.6 33.8-6.9 51.2-6.9 17.4 0 34.8 2.3 51.2 6.9 39.2-26.6 56.4-21 56.4-21 11.2 28.2 4.1 49.2 2 54.3 13.1 14.4 21 32.7 21 55.1 0 78.7-47.9 96.2-93.5 101.3 7.4 6.4 13.8 18.8 13.8 38 0 27.4-.2 49.5-.2 56.4 0 5.4 3.8 11.7 14 9.7C405.3 423.5 464 346.6 464 256 464 141.6 370.4 48 256 48z"></path>
  </g>
</svg>